<mxfile host="app.diagrams.net" agent="Mozilla/5.0 (Windows NT 10.0; Win64; x64) AppleWebKit/537.36 (KHTML, like Gecko) Chrome/138.0.0.0 Safari/537.36" version="28.0.9">
  <diagram name="Page-1" id="CiXIOeun1XRlg9KHR74v">
    <mxGraphModel dx="872" dy="1565" grid="1" gridSize="10" guides="1" tooltips="1" connect="1" arrows="1" fold="1" page="1" pageScale="1" pageWidth="850" pageHeight="1100" math="0" shadow="0">
      <root>
        <mxCell id="0" />
        <mxCell id="1" parent="0" />
        <mxCell id="UNs61rUXciKWKDsNya_f-2" value="" style="rounded=0;whiteSpace=wrap;html=1;fontColor=light-dark(default, #c4bfbf);" vertex="1" parent="1">
          <mxGeometry x="350" y="-30" width="440" height="600" as="geometry" />
        </mxCell>
        <mxCell id="UNs61rUXciKWKDsNya_f-3" value="" style="aspect=fixed;sketch=0;html=1;dashed=0;whitespace=wrap;verticalLabelPosition=bottom;verticalAlign=top;fillColor=#2875E2;strokeColor=#ffffff;points=[[0.005,0.63,0],[0.1,0.2,0],[0.9,0.2,0],[0.5,0,0],[0.995,0.63,0],[0.72,0.99,0],[0.5,1,0],[0.28,0.99,0]];shape=mxgraph.kubernetes.icon2;prIcon=k_proxy" vertex="1" parent="1">
          <mxGeometry x="385" y="220" width="80" height="76.8" as="geometry" />
        </mxCell>
        <mxCell id="UNs61rUXciKWKDsNya_f-5" value="" style="aspect=fixed;sketch=0;html=1;dashed=0;whitespace=wrap;verticalLabelPosition=bottom;verticalAlign=top;fillColor=#2875E2;strokeColor=#ffffff;points=[[0.005,0.63,0],[0.1,0.2,0],[0.9,0.2,0],[0.5,0,0],[0.995,0.63,0],[0.72,0.99,0],[0.5,1,0],[0.28,0.99,0]];shape=mxgraph.kubernetes.icon2;kubernetesLabel=1;prIcon=kubelet" vertex="1" parent="1">
          <mxGeometry x="385" y="20" width="80" height="76.8" as="geometry" />
        </mxCell>
        <mxCell id="UNs61rUXciKWKDsNya_f-6" value="" style="rounded=1;whiteSpace=wrap;html=1;fillColor=#1ba1e2;fontColor=#ffffff;strokeColor=#006EAF;" vertex="1" parent="1">
          <mxGeometry x="510" y="18.4" width="270" height="101.6" as="geometry" />
        </mxCell>
        <mxCell id="UNs61rUXciKWKDsNya_f-7" value="responsible for ensuring the pod is always running. If the pod is not running then takes necessary action through API server" style="text;html=1;align=center;verticalAlign=middle;whiteSpace=wrap;rounded=0;" vertex="1" parent="1">
          <mxGeometry x="520" y="20" width="250" height="90" as="geometry" />
        </mxCell>
        <mxCell id="UNs61rUXciKWKDsNya_f-9" value="kubeproxy" style="text;html=1;align=center;verticalAlign=middle;whiteSpace=wrap;rounded=0;" vertex="1" parent="1">
          <mxGeometry x="400" y="290" width="60" height="30" as="geometry" />
        </mxCell>
        <mxCell id="UNs61rUXciKWKDsNya_f-11" value="" style="shape=parallelogram;perimeter=parallelogramPerimeter;whiteSpace=wrap;html=1;fixedSize=1;fillColor=#fa6800;fontColor=light-dark(default, #9a8d8d);strokeColor=#C73500;" vertex="1" parent="1">
          <mxGeometry x="510" y="210" width="250" height="110" as="geometry" />
        </mxCell>
        <mxCell id="UNs61rUXciKWKDsNya_f-12" value="for networking (uses IP tables) and default load balancing capabilities means if load increases then it increases the containers." style="text;html=1;align=center;verticalAlign=middle;whiteSpace=wrap;rounded=0;" vertex="1" parent="1">
          <mxGeometry x="530" y="220" width="210" height="90" as="geometry" />
        </mxCell>
        <mxCell id="UNs61rUXciKWKDsNya_f-13" value="" style="ellipse;whiteSpace=wrap;html=1;" vertex="1" parent="1">
          <mxGeometry x="520" y="390" width="240" height="130" as="geometry" />
        </mxCell>
        <mxCell id="UNs61rUXciKWKDsNya_f-14" value="" style="aspect=fixed;sketch=0;html=1;dashed=0;whitespace=wrap;verticalLabelPosition=bottom;verticalAlign=top;fillColor=#2875E2;strokeColor=#ffffff;points=[[0.005,0.63,0],[0.1,0.2,0],[0.9,0.2,0],[0.5,0,0],[0.995,0.63,0],[0.72,0.99,0],[0.5,1,0],[0.28,0.99,0]];shape=mxgraph.kubernetes.icon2;prIcon=crd" vertex="1" parent="1">
          <mxGeometry x="380" y="400" width="80" height="76.8" as="geometry" />
        </mxCell>
        <mxCell id="UNs61rUXciKWKDsNya_f-15" value="container run time" style="text;html=1;align=center;verticalAlign=middle;whiteSpace=wrap;rounded=0;" vertex="1" parent="1">
          <mxGeometry x="380" y="480" width="100" height="30" as="geometry" />
        </mxCell>
        <mxCell id="UNs61rUXciKWKDsNya_f-16" value="&lt;b&gt;&lt;font style=&quot;font-size: 20px;&quot;&gt;&lt;u&gt;Worker Node / Data Plane&lt;/u&gt;&lt;/font&gt;&lt;/b&gt;" style="text;html=1;align=center;verticalAlign=middle;whiteSpace=wrap;rounded=0;fillColor=#6d8764;fontColor=#ffffff;strokeColor=#3A5431;" vertex="1" parent="1">
          <mxGeometry x="425" y="-70" width="260" height="30" as="geometry" />
        </mxCell>
      </root>
    </mxGraphModel>
  </diagram>
</mxfile>
